<svg width="512" height="512" viewBox="0 0 512 512" fill="none" xmlns="http://www.w3.org/2000/svg">
  <!-- Background Circle -->
  <circle cx="256" cy="256" r="256" fill="#082A19"/>

  <!-- All Gold Leaf Elements -->
  <g fill="#D4C862" stroke="#D4C862" stroke-width="2" stroke-linejoin="round" stroke-linecap="round">
    
    <!-- Central Sprout -->
    <g stroke-width="4">
        <path d="M256 320 L 256 280" />
        <path d="M256 220 C 235 235, 235 265, 256 280 C 277 265, 277 235, 256 220 Z" />
        <path d="M256 220 C 265 200, 260 190, 256 180" />
        <path d="M256 220 C 247 200, 252 190, 256 180" />
        <path d="M238 250 C 220 245, 210 250, 200 240" />
        <path d="M274 250 C 292 245, 302 250, 312 240" />
    </g>
    
    <!-- Sun Rays -->
    <g stroke-width="3">
        <path d="M256 205 L 256 190" />
        <path d="M280 215 L 290 200" />
        <path d="M295 240 L 310 235" />
        <path d="M295 270 L 310 275" />
        <path d="M280 295 L 290 310" />
        <path d="M256 305 L 256 320" />
        <path d="M232 295 L 222 310" />
        <path d="M217 270 L 202 275" />
        <path d="M217 240 L 202 235" />
        <path d="M232 215 L 222 200" />
    </g>

    <!-- Scales of Justice (Top Left) -->
    <g stroke-width="5">
      <path d="M130 115 L 190 115" />
      <path d="M160 115 L 160 135" />
      <path d="M135 145 C 130 165, 150 165, 145 145" fill="none"/>
      <path d="M175 145 C 170 165, 190 165, 185 145" fill="none"/>
      <path d="M160 135 L 140 145" />
      <path d="M160 135 L 180 145" />
    </g>

    <!-- Book (Top Right) -->
    <g stroke-width="4">
      <path d="M320 120 L 370 120 L 370 150 L 320 150 Z" />
      <path d="M345 120 L 345 150" />
      <path d="M328 128 L 340 128" fill="none" />
      <path d="M328 135 L 340 135" fill="none" />
      <path d="M328 142 L 340 142" fill="none" />
      <path d="M350 128 L 362 128" fill="none" />
      <path d="M350 135 L 362 135" fill="none" />
      <path d="M350 142 L 362 142" fill="none" />
    </g>

    <!-- Brain (Left) -->
    <g stroke-width="4" fill="none">
        <path d="M125 240 C 110 230, 90 235, 85 250 C 80 265, 95 280, 110 275 C 125 270, 130 255, 125 240 Z" />
        <path d="M105 275 C 100 285, 90 280, 85 270" />
        <path d="M110 235 C 115 225, 125 230, 120 240" />
        <path d="M90 240 C 80 245, 85 255, 95 255" />
        <path d="M120 260 C 130 255, 125 245, 115 245" />
    </g>

    <!-- Beaker (Right) -->
    <g stroke-width="5" fill="none">
        <path d="M385 280 L 385 230 L 425 230 L 425 280" />
        <path d="M395 255 C 405 265, 415 245, 420 255" />
        <path d="M405 280 L 405 295" />
        <path d="M390 295 L 420 295" />
    </g>

    <!-- Decorative Vines -->
    <g stroke-width="6" fill="none">
        <path d="M256 320 C 200 380, 100 380, 80 320" />
        <path d="M256 320 C 312 380, 412 380, 432 320" />
        <path d="M80 320 C 40 256, 120 150, 180 140" />
        <path d="M432 320 C 472 256, 392 150, 332 140" />
        <path d="M180 140 C 220 130, 292 130, 332 140" />
    </g>
    
    <!-- Leaves -->
    <g stroke="none">
        <circle cx="200" cy="360" r="10"/>
        <circle cx="312" cy="360" r="10"/>
        <circle cx="100" cy="180" r="10"/>
        <circle cx="412" cy="180" r="10"/>
        <circle cx="256" cy="120" r="12"/>
        <circle cx="290" cy="400" r="8"/>
        <circle cx="222" cy="400" r="8"/>
    </g>
  </g>
</svg>
