<svg width="512" height="512" viewBox="0 0 512 512" fill="none" xmlns="http://www.w3.org/2000/svg">
  <!-- Background Circle -->
  <circle cx="256" cy="256" r="256" fill="#082A19"/>

  <!-- All Gold Leaf Elements -->
  <g fill="#D4C862">
    
    <!-- Central Sprout -->
    <path d="M256 224C256 224 280 248 280 272C280 296 256 320 256 320C256 320 232 296 232 272C232 248 256 224 256 224Z" fill-opacity="0.1"/>
    <path d="M256 320V288M256 224C242.745 224 232 246.745 232 260C232 273.255 242.745 288 256 288C269.255 288 280 273.255 280 260C280 246.745 269.255 224 256 224Z"/>
    <path d="M256 224L264 208M256 224L248 208"/>
    <path d="M288 248L304 240M224 248L208 240"/>
    <path d="M280 288L296 304M232 288L216 304"/>

    <!-- Scales of Justice (Top Left) -->
    <g>
      <path d="M128 128H192"/>
      <path d="M160 128V144"/>
      <path d="M144 144L128 168C128 168 136 176 144 168"/>
      <path d="M176 144L192 168C192 168 184 176 176 168"/>
    </g>

    <!-- Book (Top Right) -->
    <g>
      <path d="M320 160V128H368V160H320Z"/>
      <path d="M328 136V152M336 136V152M344 136V152M352 136V152"/>
    </g>

    <!-- Brain (Left) -->
    <g>
      <path d="M128 256C128 242.745 117.255 232 104 232C90.7452 232 80 242.745 80 256C80 269.255 90.7452 280 104 280C117.255 280 128 269.255 128 256Z"/>
      <path d="M104 232C112 232 112 224 104 224C96 224 96 232 104 232Z"/>
      <path d="M88 248C80 248 80 240 88 240C96 240 96 248 88 248Z"/>
      <path d="M120 248C128 248 128 240 120 240C112 240 112 248 120 248Z"/>
      <path d="M88 264C80 264 80 256 88 256C96 256 96 264 88 264Z"/>
      <path d="M120 264C128 264 128 256 120 256C112 256 112 264 120 264Z"/>
      <path d="M104 280C112 280 112 288 104 288C96 288 96 280 104 280Z"/>
    </g>

    <!-- Beaker (Right) -->
    <g>
      <path d="M384 232V280H432V232"/>
      <path d="M392 240H424"/>
      <path d="M408 280V296"/>
      <path d="M392 296H424"/>
    </g>

    <!-- Decorative Vines -->
    <path d="M256 320C224 352 160 368 128 336" stroke="#D4C862" stroke-width="4" stroke-linecap="round"/>
    <path d="M256 320C288 352 352 368 384 336" stroke="#D4C862" stroke-width="4" stroke-linecap="round"/>
    <path d="M128 336C96 304 96 208 160 176" stroke="#D4C862" stroke-width="4" stroke-linecap="round"/>
    <path d="M384 336C416 304 416 208 352 176" stroke="#D4C862" stroke-width="4" stroke-linecap="round"/>
    <path d="M160 176C224 144 288 144 352 176" stroke="#D4C862" stroke-width="4" stroke-linecap="round"/>
    
    <!-- Leaves -->
    <circle cx="144" cy="352" r="8"/>
    <circle cx="368" cy="352" r="8"/>
    <circle cx="128" cy="192" r="8"/>
    <circle cx="384" cy="192" r="8"/>
    <circle cx="256" cy="160" r="8"/>
  </g>
</svg>
